# xmcd CD database file
#
# Track frame offsets:
#	150
#	31201
#	56595
#	75812
#	99684
#	114316
#	125431
#	149036
#	163373
#	188100
#
# Disc length: 2943 seconds
#
# Revision: 0
# Processed by: cddbd v1.5.2PL0 Copyright (c) Steve Scherf et al.
# Submitted via: CDex 1.51
#
DISCID=840b7d0a
DTITLE=Fatih Erkoç and Kerem Görsev Trio - The Lady from Istanbul
DYEAR=2009
DGENRE=Jazz
TTITLE0=Nat King Cole Medley (Too Young/Mona Lisa/Love)
TTITLE1=My Funny Valentine
TTITLE2=The Way You Look Tonight
TTITLE3=What A Wonderful World
TTITLE4=I Love Paris
TTITLE5=Pennies From Heaven
TTITLE6=Over The Rainbow
TTITLE7=Lady's A Tramp
TTITLE8=Misty
TTITLE9=Bye Bye Blackbird
EXTD=YEAR: 2009
EXTT0=
EXTT1=
EXTT2=
EXTT3=
EXTT4=
EXTT5=
EXTT6=
EXTT7=
EXTT8=
EXTT9=
PLAYORDER=
